<svg xmlns="http://www.w3.org/2000/svg" xmlns:xlink="http://www.w3.org/1999/xlink" width="500" zoomAndPan="magnify" viewBox="0 0 375 374.999991" height="500" preserveAspectRatio="xMidYMid meet" version="1.0"><defs><clipPath id="26edab857a"><path d="M 37.5 37.5 L 338 37.5 L 338 330.621094 L 37.5 330.621094 Z M 37.5 37.5 " clip-rule="nonzero"/></clipPath><clipPath id="da05f7ad9c"><path d="M 54.75 37.5 L 320.25 37.5 C 324.824219 37.5 329.210938 39.316406 332.449219 42.550781 C 335.683594 45.789062 337.5 50.175781 337.5 54.75 L 337.5 313.371094 C 337.5 317.945312 335.683594 322.335938 332.449219 325.570312 C 329.210938 328.804688 324.824219 330.621094 320.25 330.621094 L 54.75 330.621094 C 50.175781 330.621094 45.789062 328.804688 42.550781 325.570312 C 39.316406 322.335938 37.5 317.945312 37.5 313.371094 L 37.5 54.75 C 37.5 50.175781 39.316406 45.789062 42.550781 42.550781 C 45.789062 39.316406 50.175781 37.5 54.75 37.5 Z M 54.75 37.5 " clip-rule="nonzero"/></clipPath><clipPath id="1d950aa955"><path d="M 44.378906 40.9375 L 330.878906 40.9375 L 330.878906 327.4375 L 44.378906 327.4375 Z M 44.378906 40.9375 " clip-rule="nonzero"/></clipPath></defs><g clip-path="url(#26edab857a)"><g clip-path="url(#da05f7ad9c)"><path fill="#ffffff" d="M 37.5 37.5 L 337.492188 37.5 L 337.492188 330.621094 L 37.5 330.621094 Z M 37.5 37.5 " fill-opacity="1" fill-rule="nonzero"/></g></g><g clip-path="url(#1d950aa955)"><path stroke-linecap="butt" transform="matrix(10.893537, 0, 0, 10.893537, 13.331338, 10.437057)" fill="none" stroke-linejoin="miter" d="M 28.000109 12.077873 L 16.00009 4.047022 L 4.00007 12.077873 L 4.00007 19.921902 L 16.00009 27.953112 L 28.000109 19.921902 Z M 28.000109 12.077873 " stroke="#000000" stroke-width="2" stroke-opacity="1" stroke-miterlimit="10"/><path stroke-linecap="butt" transform="matrix(10.893537, 0, 0, 10.893537, 13.331338, 10.437057)" fill="none" stroke-linejoin="miter" d="M 4.00007 12.077873 L 16.00009 20.109083 L 28.000109 12.077873 " stroke="#000000" stroke-width="2" stroke-opacity="1" stroke-miterlimit="10"/><path stroke-linecap="butt" transform="matrix(10.893537, 0, 0, 10.893537, 13.331338, 10.437057)" fill="none" stroke-linejoin="miter" d="M 28.000109 19.921902 L 16.00009 11.891051 L 4.00007 19.921902 " stroke="#000000" stroke-width="2" stroke-opacity="1" stroke-miterlimit="10"/></g><path stroke-linecap="butt" transform="matrix(10.893537, 0, 0, 10.893537, 13.331338, 10.437057)" fill="none" stroke-linejoin="miter" d="M 16.00009 11.854834 L 16.00009 4.058855 " stroke="#000000" stroke-width="2" stroke-opacity="1" stroke-miterlimit="10"/><path stroke-linecap="butt" transform="matrix(10.893537, 0, 0, 10.893537, 13.331338, 10.437057)" fill="none" stroke-linejoin="miter" d="M 16.00009 27.887132 L 16.00009 20.137053 " stroke="#000000" stroke-width="2" stroke-opacity="1" stroke-miterlimit="10"/></svg>